<svg width="512" height="512" viewBox="0 0 512 512" fill="none" xmlns="http://www.w3.org/2000/svg">
  <!-- Background is transparent for Safari pinned tabs -->
  
  <!-- Main shape - Using a solid color as Safari will convert it -->
  <path fill-rule="evenodd" clip-rule="evenodd" d="M256 512C397.385 512 512 397.385 512 256C512 114.615 397.385 0 256 0C114.615 0 0 114.615 0 256C0 397.385 114.615 512 256 512ZM256 472C375.305 472 472 375.305 472 256C472 136.695 375.305 40 256 40C136.695 40 40 136.695 40 256C40 375.305 136.695 472 256 472Z" fill="black"/>
  
  <!-- Letter P -->
  <path d="M184 140H317.5C337.1 140 352.85 145.15 364.75 155.45C376.65 165.75 382.6 180.3 382.6 199.1C382.6 218.3 376.65 233.15 364.75 243.65C352.85 253.85 337.1 259 317.5 259H246.2V370H184V140ZM246.2 210.6H299.9C305.7 210.6 310.15 208.95 313.25 205.65C316.35 202.35 317.9 197.8 317.9 192C317.9 186.2 316.35 181.65 313.25 178.35C310.15 175.05 305.7 173.4 299.9 173.4H246.2V210.6Z" fill="black"/>
</svg> 